<svg width="24" height="24" viewBox="0 0 46 46" fill="none" xmlns="http://www.w3.org/2000/svg">
<path fill-rule="evenodd" clip-rule="evenodd" d="M41.3364 10.547C41.3364 7.90061 39.1911 5.7553 36.5447 5.7553H8.8297C6.39818 5.64136 4.27053 7.37565 3.8919 9.78022C3.51326 12.1848 5.00499 14.489 7.35387 15.1278V32.3778C7.35385 35.927 10.2255 38.8072 13.7747 38.8178H31.5614C33.2727 38.8229 34.9157 38.1466 36.1275 36.9384C37.3394 35.7301 38.0205 34.0891 38.0205 32.3778V15.1278C40.0089 14.4906 41.3521 12.6348 41.3364 10.547ZM31.5805 35.9236H13.7939C12.8535 35.9236 11.9516 35.5501 11.2866 34.8851C10.6216 34.2201 10.248 33.3182 10.248 32.3778V15.3386H35.1647V32.3778C35.1648 33.3249 34.7859 34.2327 34.1126 34.8987C33.4393 35.5648 32.5276 35.9339 31.5805 35.9236ZM8.82971 12.4636H36.5447C37.6032 12.4636 38.4614 11.6055 38.4614 10.547C38.4614 9.48842 37.6032 8.6303 36.5447 8.6303H8.82971C7.77116 8.6303 6.91304 9.48842 6.91304 10.547C6.91304 11.6055 7.77116 12.4636 8.82971 12.4636Z" fill="white"/>
<path d="M26.9997 20.3795H18.3747C17.5808 20.3795 16.9372 21.0231 16.9372 21.817C16.9372 22.6109 17.5808 23.2545 18.3747 23.2545H26.9997C27.7936 23.2545 28.4372 22.6109 28.4372 21.817C28.4372 21.0231 27.7936 20.3795 26.9997 20.3795Z" fill="white"/>
</svg>
